<?xml version="1.0" encoding="UTF-8" standalone="no"?>
<!-- Created with Inkscape (http://www.inkscape.org/) -->

<svg
   xmlns:dc="http://purl.org/dc/elements/1.1/"
   xmlns:cc="http://creativecommons.org/ns#"
   xmlns:rdf="http://www.w3.org/1999/02/22-rdf-syntax-ns#"
   xmlns:svg="http://www.w3.org/2000/svg"
   xmlns="http://www.w3.org/2000/svg"
   xmlns:sodipodi="http://sodipodi.sourceforge.net/DTD/sodipodi-0.dtd"
   xmlns:inkscape="http://www.inkscape.org/namespaces/inkscape"
   width="744.09448819"
   height="1052.3622047"
   id="svg2"
   version="1.1"
   inkscape:version="0.48.4 r9939"
   sodipodi:docname="New document 1">
  <defs
     id="defs4" />
  <sodipodi:namedview
     id="base"
     pagecolor="#ffffff"
     bordercolor="#666666"
     borderopacity="1.0"
     inkscape:pageopacity="0.0"
     inkscape:pageshadow="2"
     inkscape:zoom="0.5"
     inkscape:cx="435.61004"
     inkscape:cy="574.60666"
     inkscape:document-units="px"
     inkscape:current-layer="layer1"
     showgrid="false"
     inkscape:window-width="1364"
     inkscape:window-height="718"
     inkscape:window-x="0"
     inkscape:window-y="25"
     inkscape:window-maximized="1" />
  <metadata
     id="metadata7">
    <rdf:RDF>
      <cc:Work
         rdf:about="">
        <dc:format>image/svg+xml</dc:format>
        <dc:type
           rdf:resource="http://purl.org/dc/dcmitype/StillImage" />
        <dc:title></dc:title>
      </cc:Work>
    </rdf:RDF>
  </metadata>
  <g
     inkscape:label="Layer 1"
     inkscape:groupmode="layer"
     id="layer1">
    <rect
       style="fill:#ef8080;fill-opacity:1;stroke:#55ff55;stroke-width:84.96603394;stroke-miterlimit:4;stroke-dasharray:none"
       id="rect3033"
       width="715.034"
       height="515.034"
       x="26.629906"
       y="699.48212" />
    <rect
       style="fill:#aa4400;fill-opacity:1;stroke:#55ff55;stroke-width:5.62401819000000014;stroke-miterlimit:4;stroke-dasharray:none"
       id="rect3835-4"
       width="44.375984"
       height="44.37598"
       x="515.21313"
       y="460.24612"
       inkscape:transform-center-x="9.8994949"
       inkscape:transform-center-y="74.953318" />
    <path
       style="fill:#bf2080;fill-opacity:1;stroke:#55ff55;stroke-width:1;stroke-miterlimit:4;stroke-dasharray:none"
       id="path3849-0"
       d="m 527.7009,472.66652 c 0.6386,1.25965 1.61061,2.30719 2.50666,3.38541 0.60244,0.54953 0.29642,0.29198 0.91587,0.77528 0,0 -2.63368,1.65236 -2.63368,1.65236 l 0,0 c -0.62622,-0.52408 -0.31536,-0.24381 -0.92927,-0.84448 -0.87938,-1.12896 -1.82637,-2.20671 -2.64203,-3.38429 0,0 2.78245,-1.58428 2.78245,-1.58428 z"
       inkscape:connector-curvature="0" />
    <path
       style="fill:#bf2080;fill-opacity:1;stroke:#55ff55;stroke-width:1;stroke-miterlimit:4;stroke-dasharray:none"
       id="path3859-8"
       d="m 527.71471,490.85686 c 0.20254,0.3171 0.4892,0.56116 0.75069,0.82591 0.0841,0.0852 0.15226,0.18728 0.24629,0.26138 0.24647,0.19423 0.62364,0.33679 0.89695,0.459 1.17919,0.42238 2.30166,0.98194 3.47159,1.42733 0.84158,0.42178 1.69913,0.81108 2.53229,1.24962 0.80781,0.44333 1.68242,0.57844 2.58579,0.67484 1.26498,0.11504 2.52096,0.29631 3.7777,0.47736 0.83661,0.0989 1.54864,-0.24557 2.27779,-0.59071 1.01328,-0.5102 2.64714,-1.45393 -1.88076,1.10274 -0.0995,0.0562 0.19525,-0.11933 0.28821,-0.18587 0.10876,-0.0779 0.21089,-0.16457 0.31634,-0.24686 0.69752,-0.57587 1.38189,-1.16714 2.08987,-1.73019 1.5023,-1.05082 3.14231,-1.91064 4.73095,-2.81295 1.0011,-0.51995 2.45805,-1.35268 -2.14168,1.24577 -0.13323,0.0753 0.18354,-0.1263 0.27847,-0.25678 0,0 2.93584,-1.32382 2.93584,-1.32382 l 0,0 c -0.51295,1.36726 -2.33195,1.63624 -3.55776,2.32303 5.00862,-2.91299 1.79665,-1.07098 0.67056,-0.34584 -0.69998,0.56493 -1.39461,1.13519 -2.08518,1.71184 -0.28889,0.28858 -0.23318,0.27143 -0.5612,0.46568 -1.17369,0.69501 -2.3193,1.47137 -3.57073,2.02923 -0.75643,0.33663 -1.53542,0.55079 -2.37332,0.4269 -1.2273,-0.23258 -2.46138,-0.4159 -3.70871,-0.50201 -0.95459,-0.093 -1.87325,-0.2358 -2.71007,-0.73623 -0.82044,-0.44118 -1.65918,-0.84697 -2.50956,-1.22736 -1.13944,-0.50431 -2.25433,-1.06887 -3.44189,-1.45744 -0.40061,-0.17642 -0.67734,-0.26337 -1.01681,-0.53325 -0.0897,-0.0713 -0.15268,-0.17097 -0.23192,-0.25374 -0.26789,-0.27984 -0.55374,-0.54271 -0.81001,-0.83379 0,0 2.75027,-1.64379 2.75027,-1.64379 z"
       inkscape:connector-curvature="0" />
    <path
       style="fill:#bf2080;fill-opacity:1;stroke:#55ff55;stroke-width:1;stroke-miterlimit:4;stroke-dasharray:none"
       id="path3865-7"
       d="m 543.41286,470.52624 c 0.0858,1.03855 0.52162,2.00102 0.87411,2.96948 0.1145,0.46865 0.37873,0.82393 0.67072,1.18854 0.20311,0.34806 0.50501,0.62396 0.84091,0.84183 0.35669,0.14731 0.73185,0.27852 1.11894,0.31124 0.12975,0.0798 0.25679,0.1498 0.39838,0.20524 0,0 -2.68744,1.78679 -2.68744,1.78679 l 0,0 c -0.11249,-0.055 -0.21886,-0.13107 -0.34647,-0.14286 -0.40671,-0.0979 -0.80372,-0.24552 -1.17287,-0.4423 -0.35249,-0.25072 -0.67959,-0.53688 -0.8988,-0.91591 -0.32285,-0.39503 -0.57815,-0.79885 -0.67841,-1.31298 -0.31723,-1.00071 -0.71792,-1.978 -0.94506,-3.00461 0,0 2.82599,-1.48446 2.82599,-1.48446 z"
       inkscape:connector-curvature="0" />
    <path
       style="fill:#bf2080;fill-opacity:1;stroke:#55ff55;stroke-width:1;stroke-miterlimit:4;stroke-dasharray:none"
       id="path3867-10"
       d="m 532.43167,486.89589 c 0.44107,1.34484 1.24372,2.53428 2.03499,3.69424 0.4632,0.76606 1.09301,1.39402 1.67218,2.066 0,0 -2.74658,1.64109 -2.74658,1.64109 l 0,0 c -0.52654,-0.7166 -1.11153,-1.38982 -1.55935,-2.16361 -0.78038,-1.19529 -1.58413,-2.38298 -2.20505,-3.67199 0,0 2.80381,-1.56573 2.80381,-1.56573 z"
       inkscape:connector-curvature="0" />
    <path
       style="fill:#bf2080;fill-opacity:1;stroke:#55ff55;stroke-width:1;stroke-miterlimit:4;stroke-dasharray:none"
       id="path3869-3"
       d="m 538.66072,487.80973 c 0.0267,1.28351 0.40798,2.516 0.9009,3.6894 0.27763,0.58939 0.1421,0.31538 0.40294,0.82382 0,0 -2.74415,1.55329 -2.74415,1.55329 l 0,0 c -0.2298,-0.53832 -0.10878,-0.24959 -0.36135,-0.86689 -0.46574,-1.20244 -0.87056,-2.43504 -1.02005,-3.72233 0,0 2.82171,-1.47729 2.82171,-1.47729 z"
       inkscape:connector-curvature="0" />
    <path
       style="fill:#bf2080;fill-opacity:1;stroke:#55ff55;stroke-width:1;stroke-miterlimit:4;stroke-dasharray:none"
       id="path3871-5"
       d="m 545.16609,488.45734 c 0.11667,0.88492 0.37827,1.7359 0.62408,2.59055 0.14915,0.50884 0.20884,1.04415 0.43987,1.52535 0,0 -2.7816,1.5706 -2.7816,1.5706 l 0,0 c -0.22177,-0.50811 -0.29136,-1.05854 -0.41795,-1.59519 -0.22698,-0.86443 -0.48281,-1.72109 -0.69686,-2.58867 0,0 2.83246,-1.50264 2.83246,-1.50264 z"
       inkscape:connector-curvature="0" />
    <path
       style="fill:#bf2080;fill-opacity:1;stroke:#55ff55;stroke-width:1;stroke-miterlimit:4;stroke-dasharray:none"
       id="path3873-8"
       d="m 527.70347,485.19535 c 0.66819,0.22259 1.36532,0.3708 2.05982,0.48907 0.9108,0.14378 1.8348,0.12449 2.75028,0.2112 1.28166,0.2432 2.57279,0.42619 3.86054,0.63354 0.55893,0.1169 1.13824,0.12069 1.69356,0.25806 0.46199,0.11428 0.91469,0.30712 1.36425,0.46249 0.79177,0.28427 1.61425,0.46768 2.40956,0.73771 1.01251,0.32295 2.06105,0.53577 3.1106,0.69864 0.95266,0.0789 1.93597,0.26427 2.885,0.0902 0.59481,-0.0893 1.13196,-0.35175 1.69791,-0.53122 0.0672,-0.0206 0.13776,-0.0324 0.20165,-0.0616 0.0532,-0.0244 0.19699,-0.12668 0.14603,-0.0978 -0.8798,0.49867 -1.75519,1.00507 -2.63293,1.50736 -0.0602,0.0344 0.10924,-0.0863 0.16958,-0.12053 0.95814,-0.54286 1.92289,-1.07395 2.88434,-1.61092 0.0775,-0.0413 0.16863,10e-4 0.24758,-0.024 0.0723,-0.0232 0.25189,-0.1695 0.186,-0.13169 -2.64049,1.51533 -3.47118,2.19396 -2.60216,1.49015 0.81514,-1.1811 2.36231,-1.70791 3.73014,-2.02006 0.27256,-0.0246 0.48118,-0.10672 0.69776,-0.26858 0,0 -2.50878,2.02713 -2.50878,2.02713 l 0,0 c -0.23491,0.0941 -0.48404,0.12098 -0.72843,0.1833 -0.17829,0.0487 -0.25878,0.0655 -0.43371,0.13519 -0.0673,0.0268 -0.26026,0.12681 -0.19784,0.09 4.04629,-2.3857 3.39836,-1.82825 2.4014,-1.42858 -0.56591,1.23026 -2.12354,1.56669 -3.33102,1.93058 0.88821,-0.51037 1.7794,-1.01557 2.66462,-1.5311 0.0619,-0.036 -0.11958,0.079 -0.18134,0.11528 -0.95308,0.56002 -1.90916,1.11511 -2.87224,1.65776 -0.1102,0.0621 -0.25121,0.0546 -0.36046,0.11857 -0.55393,0.20284 -1.11449,0.38108 -1.70342,0.45376 -0.97263,0.0668 -1.94859,-0.0568 -2.91279,-0.17986 -1.06105,-0.17726 -2.11867,-0.40315 -3.14384,-0.73161 -0.81227,-0.23933 -1.63988,-0.42928 -2.43142,-0.73622 -0.97072,-0.35659 -1.95124,-0.60141 -2.98482,-0.70155 -1.28717,-0.20711 -2.57325,-0.43122 -3.86582,-0.59721 -0.93021,-0.0503 -1.86437,-0.068 -2.78526,-0.22481 -0.72443,-0.13132 -1.45142,-0.27773 -2.15232,-0.50523 0,0 2.66798,-1.78739 2.66798,-1.78739 z"
       inkscape:connector-curvature="0" />
    <rect
       style="fill:#862080;fill-opacity:1;stroke:#55ff55;stroke-width:5.62401819000000014;stroke-miterlimit:4;stroke-dasharray:none"
       id="rect3835-4-2"
       width="44.375984"
       height="44.37598"
       x="420.46088"
       y="462.36743"
       inkscape:transform-center-x="9.8994949"
       inkscape:transform-center-y="74.953318" />
    <path
       style="fill:#bf2080;fill-opacity:1;stroke:#55ff55;stroke-width:1;stroke-miterlimit:4;stroke-dasharray:none"
       id="path3849-0-1"
       d="m 432.94859,474.78784 c 0.6386,1.25965 1.61061,2.30719 2.50666,3.38541 0.60244,0.54953 0.29642,0.29198 0.91587,0.77528 0,0 -2.63368,1.65236 -2.63368,1.65236 l 0,0 c -0.62622,-0.52408 -0.31536,-0.24381 -0.92927,-0.84448 -0.87938,-1.12896 -1.82637,-2.20671 -2.64203,-3.38429 0,0 2.78245,-1.58428 2.78245,-1.58428 z"
       inkscape:connector-curvature="0" />
    <path
       style="fill:#bf2080;fill-opacity:1;stroke:#55ff55;stroke-width:1;stroke-miterlimit:4;stroke-dasharray:none"
       id="path3859-8-2"
       d="m 432.9624,492.97818 c 0.20254,0.3171 0.4892,0.56116 0.75069,0.82591 0.0841,0.0852 0.15226,0.18728 0.24629,0.26138 0.24647,0.19423 0.62364,0.33679 0.89695,0.459 1.17919,0.42238 2.30166,0.98194 3.47159,1.42733 0.84158,0.42178 1.69913,0.81108 2.53229,1.24962 0.80781,0.44333 1.68242,0.57844 2.58579,0.67484 1.26498,0.11504 2.52096,0.29631 3.7777,0.47736 0.83661,0.0989 1.54864,-0.24557 2.27779,-0.59071 1.01328,-0.5102 2.64714,-1.45393 -1.88076,1.10274 -0.0995,0.0562 0.19525,-0.11933 0.28821,-0.18587 0.10876,-0.0779 0.21089,-0.16457 0.31634,-0.24686 0.69752,-0.57587 1.38189,-1.16714 2.08987,-1.73019 1.5023,-1.05082 3.14231,-1.91064 4.73095,-2.81295 1.0011,-0.51995 2.45805,-1.35268 -2.14168,1.24577 -0.13323,0.0753 0.18354,-0.1263 0.27847,-0.25678 0,0 2.93584,-1.32382 2.93584,-1.32382 l 0,0 c -0.51295,1.36726 -2.33195,1.63624 -3.55776,2.32303 5.00862,-2.91299 1.79665,-1.07098 0.67056,-0.34584 -0.69998,0.56493 -1.39461,1.13519 -2.08518,1.71184 -0.28889,0.28858 -0.23318,0.27143 -0.5612,0.46568 -1.17369,0.69501 -2.3193,1.47137 -3.57073,2.02923 -0.75643,0.33663 -1.53542,0.55079 -2.37332,0.4269 -1.2273,-0.23258 -2.46138,-0.4159 -3.70871,-0.50201 -0.95459,-0.093 -1.87325,-0.2358 -2.71007,-0.73623 -0.82044,-0.44118 -1.65918,-0.84697 -2.50956,-1.22736 -1.13944,-0.50431 -2.25433,-1.06887 -3.44189,-1.45744 -0.40061,-0.17642 -0.67734,-0.26337 -1.01681,-0.53325 -0.0897,-0.0713 -0.15268,-0.17097 -0.23192,-0.25374 -0.26789,-0.27984 -0.55374,-0.54271 -0.81001,-0.83379 0,0 2.75027,-1.64379 2.75027,-1.64379 z"
       inkscape:connector-curvature="0" />
    <path
       style="fill:#bf2080;fill-opacity:1;stroke:#55ff55;stroke-width:1;stroke-miterlimit:4;stroke-dasharray:none"
       id="path3865-7-6"
       d="m 448.66055,472.64756 c 0.0858,1.03855 0.52162,2.00102 0.87411,2.96948 0.1145,0.46865 0.37873,0.82393 0.67072,1.18854 0.20311,0.34806 0.50501,0.62396 0.84091,0.84183 0.35669,0.14731 0.73185,0.27852 1.11894,0.31124 0.12975,0.0798 0.25679,0.1498 0.39838,0.20524 0,0 -2.68744,1.78679 -2.68744,1.78679 l 0,0 c -0.11249,-0.055 -0.21886,-0.13107 -0.34647,-0.14286 -0.40671,-0.0979 -0.80372,-0.24552 -1.17287,-0.4423 -0.35249,-0.25072 -0.67959,-0.53688 -0.8988,-0.91591 -0.32285,-0.39503 -0.57815,-0.79885 -0.67841,-1.31298 -0.31723,-1.00071 -0.71792,-1.978 -0.94506,-3.00461 0,0 2.82599,-1.48446 2.82599,-1.48446 z"
       inkscape:connector-curvature="0" />
    <path
       style="fill:#bf2080;fill-opacity:1;stroke:#55ff55;stroke-width:1;stroke-miterlimit:4;stroke-dasharray:none"
       id="path3867-10-2"
       d="m 437.67936,489.01721 c 0.44107,1.34484 1.24372,2.53428 2.03499,3.69424 0.4632,0.76606 1.09301,1.39402 1.67218,2.066 0,0 -2.74658,1.64109 -2.74658,1.64109 l 0,0 c -0.52654,-0.7166 -1.11153,-1.38982 -1.55935,-2.16361 -0.78038,-1.19529 -1.58413,-2.38298 -2.20505,-3.67199 0,0 2.80381,-1.56573 2.80381,-1.56573 z"
       inkscape:connector-curvature="0" />
    <path
       style="fill:#bf2080;fill-opacity:1;stroke:#55ff55;stroke-width:1;stroke-miterlimit:4;stroke-dasharray:none"
       id="path3869-3-8"
       d="m 443.90841,489.93105 c 0.0267,1.28351 0.40798,2.516 0.9009,3.6894 0.27763,0.58939 0.1421,0.31538 0.40294,0.82382 0,0 -2.74415,1.55329 -2.74415,1.55329 l 0,0 c -0.2298,-0.53832 -0.10878,-0.24959 -0.36135,-0.86689 -0.46574,-1.20244 -0.87056,-2.43504 -1.02005,-3.72233 0,0 2.82171,-1.47729 2.82171,-1.47729 z"
       inkscape:connector-curvature="0" />
    <path
       style="fill:#bf2080;fill-opacity:1;stroke:#55ff55;stroke-width:1;stroke-miterlimit:4;stroke-dasharray:none"
       id="path3871-5-9"
       d="m 450.41378,490.57866 c 0.11667,0.88492 0.37827,1.7359 0.62408,2.59055 0.14915,0.50884 0.20884,1.04415 0.43987,1.52535 0,0 -2.7816,1.5706 -2.7816,1.5706 l 0,0 c -0.22177,-0.50811 -0.29136,-1.05854 -0.41795,-1.59519 -0.22698,-0.86443 -0.48281,-1.72109 -0.69686,-2.58867 0,0 2.83246,-1.50264 2.83246,-1.50264 z"
       inkscape:connector-curvature="0" />
    <path
       style="fill:#bf2080;fill-opacity:1;stroke:#55ff55;stroke-width:1;stroke-miterlimit:4;stroke-dasharray:none"
       id="path3873-8-2"
       d="m 432.95116,487.31667 c 0.66819,0.22259 1.36532,0.3708 2.05982,0.48907 0.9108,0.14378 1.8348,0.12449 2.75028,0.2112 1.28166,0.2432 2.57279,0.42619 3.86054,0.63354 0.55893,0.1169 1.13824,0.12069 1.69356,0.25806 0.46199,0.11428 0.91469,0.30712 1.36425,0.46249 0.79177,0.28427 1.61425,0.46768 2.40956,0.73771 1.01251,0.32295 2.06105,0.53577 3.1106,0.69864 0.95266,0.0789 1.93597,0.26427 2.885,0.0902 0.59481,-0.0893 1.13196,-0.35175 1.69791,-0.53122 0.0672,-0.0206 0.13776,-0.0324 0.20165,-0.0616 0.0532,-0.0244 0.19699,-0.12668 0.14603,-0.0978 -0.8798,0.49867 -1.75519,1.00507 -2.63293,1.50736 -0.0602,0.0344 0.10924,-0.0863 0.16958,-0.12053 0.95814,-0.54286 1.92289,-1.07395 2.88434,-1.61092 0.0775,-0.0413 0.16863,0.001 0.24758,-0.024 0.0723,-0.0232 0.25189,-0.1695 0.186,-0.13169 -2.64049,1.51533 -3.47118,2.19396 -2.60216,1.49015 0.81514,-1.1811 2.36231,-1.70791 3.73014,-2.02006 0.27256,-0.0246 0.48118,-0.10672 0.69776,-0.26858 0,0 -2.50878,2.02713 -2.50878,2.02713 l 0,0 c -0.23491,0.0941 -0.48404,0.12098 -0.72843,0.1833 -0.17829,0.0487 -0.25878,0.0655 -0.43371,0.13519 -0.0673,0.0268 -0.26026,0.12681 -0.19784,0.09 4.04629,-2.3857 3.39836,-1.82825 2.4014,-1.42858 -0.56591,1.23026 -2.12354,1.56669 -3.33102,1.93058 0.88821,-0.51037 1.7794,-1.01557 2.66462,-1.5311 0.0619,-0.036 -0.11958,0.079 -0.18134,0.11528 -0.95308,0.56002 -1.90916,1.11511 -2.87224,1.65776 -0.1102,0.0621 -0.25121,0.0546 -0.36046,0.11857 -0.55393,0.20284 -1.11449,0.38108 -1.70342,0.45376 -0.97263,0.0668 -1.94859,-0.0568 -2.91279,-0.17986 -1.06105,-0.17726 -2.11867,-0.40315 -3.14384,-0.73161 -0.81227,-0.23933 -1.63988,-0.42928 -2.43142,-0.73622 -0.97072,-0.35659 -1.95124,-0.60141 -2.98482,-0.70155 -1.28717,-0.20711 -2.57325,-0.43122 -3.86582,-0.59721 -0.93021,-0.0503 -1.86437,-0.068 -2.78526,-0.22481 -0.72443,-0.13132 -1.45142,-0.27773 -2.15232,-0.50523 0,0 2.66798,-1.78739 2.66798,-1.78739 z"
       inkscape:connector-curvature="0" />
    <rect
       style="fill:#241f1c;fill-opacity:1;stroke:#55ff55;stroke-width:5.62401819000000014;stroke-miterlimit:4;stroke-dasharray:none"
       id="rect3835-4-3"
       width="44.375984"
       height="44.37598"
       x="323.58722"
       y="459.53903"
       inkscape:transform-center-x="9.8994949"
       inkscape:transform-center-y="74.953318" />
    <path
       style="fill:#bf2080;fill-opacity:1;stroke:#55ff55;stroke-width:1;stroke-miterlimit:4;stroke-dasharray:none"
       id="path3849-0-7"
       d="m 336.07496,471.95942 c 0.6386,1.25965 1.61061,2.30719 2.50666,3.38541 0.60244,0.54953 0.29642,0.29198 0.91587,0.77528 0,0 -2.63368,1.65236 -2.63368,1.65236 l 0,0 c -0.62622,-0.52408 -0.31536,-0.24381 -0.92927,-0.84448 -0.87938,-1.12896 -1.82637,-2.20671 -2.64203,-3.38429 0,0 2.78245,-1.58428 2.78245,-1.58428 z"
       inkscape:connector-curvature="0" />
    <path
       style="fill:#bf2080;fill-opacity:1;stroke:#55ff55;stroke-width:1;stroke-miterlimit:4;stroke-dasharray:none"
       id="path3859-8-5"
       d="m 336.08877,490.14976 c 0.20254,0.3171 0.4892,0.56116 0.75069,0.82591 0.0841,0.0852 0.15226,0.18728 0.24629,0.26138 0.24647,0.19423 0.62364,0.33679 0.89695,0.459 1.17919,0.42238 2.30166,0.98194 3.47159,1.42733 0.84158,0.42178 1.69913,0.81108 2.53229,1.24962 0.80781,0.44333 1.68242,0.57844 2.58579,0.67484 1.26498,0.11504 2.52096,0.29631 3.7777,0.47736 0.83661,0.0989 1.54864,-0.24557 2.27779,-0.59071 1.01328,-0.5102 2.64714,-1.45393 -1.88076,1.10274 -0.0995,0.0562 0.19525,-0.11933 0.28821,-0.18587 0.10876,-0.0779 0.21089,-0.16457 0.31634,-0.24686 0.69752,-0.57587 1.38189,-1.16714 2.08987,-1.73019 1.5023,-1.05082 3.14231,-1.91064 4.73095,-2.81295 1.0011,-0.51995 2.45805,-1.35268 -2.14168,1.24577 -0.13323,0.0753 0.18354,-0.1263 0.27847,-0.25678 0,0 2.93584,-1.32382 2.93584,-1.32382 l 0,0 c -0.51295,1.36726 -2.33195,1.63624 -3.55776,2.32303 5.00862,-2.91299 1.79665,-1.07098 0.67056,-0.34584 -0.69998,0.56493 -1.39461,1.13519 -2.08518,1.71184 -0.28889,0.28858 -0.23318,0.27143 -0.5612,0.46568 -1.17369,0.69501 -2.3193,1.47137 -3.57073,2.02923 -0.75643,0.33663 -1.53542,0.55079 -2.37332,0.4269 -1.2273,-0.23258 -2.46138,-0.4159 -3.70871,-0.50201 -0.95459,-0.093 -1.87325,-0.2358 -2.71007,-0.73623 -0.82044,-0.44118 -1.65918,-0.84697 -2.50956,-1.22736 -1.13944,-0.50431 -2.25433,-1.06887 -3.44189,-1.45744 -0.40061,-0.17642 -0.67734,-0.26337 -1.01681,-0.53325 -0.0897,-0.0713 -0.15268,-0.17097 -0.23192,-0.25374 -0.26789,-0.27984 -0.55374,-0.54271 -0.81001,-0.83379 0,0 2.75027,-1.64379 2.75027,-1.64379 z"
       inkscape:connector-curvature="0" />
    <path
       style="fill:#bf2080;fill-opacity:1;stroke:#55ff55;stroke-width:1;stroke-miterlimit:4;stroke-dasharray:none"
       id="path3865-7-1"
       d="m 351.78692,469.81914 c 0.0858,1.03855 0.52162,2.00102 0.87411,2.96948 0.1145,0.46865 0.37873,0.82393 0.67072,1.18854 0.20311,0.34806 0.50501,0.62396 0.84091,0.84183 0.35669,0.14731 0.73185,0.27852 1.11894,0.31124 0.12975,0.0798 0.25679,0.1498 0.39838,0.20524 0,0 -2.68744,1.78679 -2.68744,1.78679 l 0,0 c -0.11249,-0.055 -0.21886,-0.13107 -0.34647,-0.14286 -0.40671,-0.0979 -0.80372,-0.24552 -1.17287,-0.4423 -0.35249,-0.25072 -0.67959,-0.53688 -0.8988,-0.91591 -0.32285,-0.39503 -0.57815,-0.79885 -0.67841,-1.31298 -0.31723,-1.00071 -0.71792,-1.978 -0.94506,-3.00461 0,0 2.82599,-1.48446 2.82599,-1.48446 z"
       inkscape:connector-curvature="0" />
    <path
       style="fill:#bf2080;fill-opacity:1;stroke:#55ff55;stroke-width:1;stroke-miterlimit:4;stroke-dasharray:none"
       id="path3867-10-9"
       d="m 340.80573,486.18879 c 0.44107,1.34484 1.24372,2.53428 2.03499,3.69424 0.4632,0.76606 1.09301,1.39402 1.67218,2.066 0,0 -2.74658,1.64109 -2.74658,1.64109 l 0,0 c -0.52654,-0.7166 -1.11153,-1.38982 -1.55935,-2.16361 -0.78038,-1.19529 -1.58413,-2.38298 -2.20505,-3.67199 0,0 2.80381,-1.56573 2.80381,-1.56573 z"
       inkscape:connector-curvature="0" />
    <path
       style="fill:#bf2080;fill-opacity:1;stroke:#55ff55;stroke-width:1;stroke-miterlimit:4;stroke-dasharray:none"
       id="path3869-3-9"
       d="m 347.03478,487.10263 c 0.0267,1.28351 0.40798,2.516 0.9009,3.6894 0.27763,0.58939 0.1421,0.31538 0.40294,0.82382 0,0 -2.74415,1.55329 -2.74415,1.55329 l 0,0 c -0.2298,-0.53832 -0.10878,-0.24959 -0.36135,-0.86689 -0.46574,-1.20244 -0.87056,-2.43504 -1.02005,-3.72233 0,0 2.82171,-1.47729 2.82171,-1.47729 z"
       inkscape:connector-curvature="0" />
    <path
       style="fill:#bf2080;fill-opacity:1;stroke:#55ff55;stroke-width:1;stroke-miterlimit:4;stroke-dasharray:none"
       id="path3871-5-8"
       d="m 353.54015,487.75024 c 0.11667,0.88492 0.37827,1.7359 0.62408,2.59055 0.14915,0.50884 0.20884,1.04415 0.43987,1.52535 0,0 -2.7816,1.5706 -2.7816,1.5706 l 0,0 c -0.22177,-0.50811 -0.29136,-1.05854 -0.41795,-1.59519 -0.22698,-0.86443 -0.48281,-1.72109 -0.69686,-2.58867 0,0 2.83246,-1.50264 2.83246,-1.50264 z"
       inkscape:connector-curvature="0" />
    <path
       style="fill:#bf2080;fill-opacity:1;stroke:#55ff55;stroke-width:1;stroke-miterlimit:4;stroke-dasharray:none"
       id="path3873-8-9"
       d="m 336.07753,484.48825 c 0.66819,0.22259 1.36532,0.3708 2.05982,0.48907 0.9108,0.14378 1.8348,0.12449 2.75028,0.2112 1.28166,0.2432 2.57279,0.42619 3.86054,0.63354 0.55893,0.1169 1.13824,0.12069 1.69356,0.25806 0.46199,0.11428 0.91469,0.30712 1.36425,0.46249 0.79177,0.28427 1.61425,0.46768 2.40956,0.73771 1.01251,0.32295 2.06105,0.53577 3.1106,0.69864 0.95266,0.0789 1.93597,0.26427 2.885,0.0902 0.59481,-0.0893 1.13196,-0.35175 1.69791,-0.53122 0.0672,-0.0206 0.13776,-0.0324 0.20165,-0.0616 0.0532,-0.0244 0.19699,-0.12668 0.14603,-0.0978 -0.8798,0.49867 -1.75519,1.00507 -2.63293,1.50736 -0.0602,0.0344 0.10924,-0.0863 0.16958,-0.12053 0.95814,-0.54286 1.92289,-1.07395 2.88434,-1.61092 0.0775,-0.0413 0.16863,10e-4 0.24758,-0.024 0.0723,-0.0232 0.25189,-0.1695 0.186,-0.13169 -2.64049,1.51533 -3.47118,2.19396 -2.60216,1.49015 0.81514,-1.1811 2.36231,-1.70791 3.73014,-2.02006 0.27256,-0.0246 0.48118,-0.10672 0.69776,-0.26858 0,0 -2.50878,2.02713 -2.50878,2.02713 l 0,0 c -0.23491,0.0941 -0.48404,0.12098 -0.72843,0.1833 -0.17829,0.0487 -0.25878,0.0655 -0.43371,0.13519 -0.0673,0.0268 -0.26026,0.12681 -0.19784,0.09 4.04629,-2.3857 3.39836,-1.82825 2.4014,-1.42858 -0.56591,1.23026 -2.12354,1.56669 -3.33102,1.93058 0.88821,-0.51037 1.7794,-1.01557 2.66462,-1.5311 0.0619,-0.036 -0.11958,0.079 -0.18134,0.11528 -0.95308,0.56002 -1.90916,1.11511 -2.87224,1.65776 -0.1102,0.0621 -0.25121,0.0546 -0.36046,0.11857 -0.55393,0.20284 -1.11449,0.38108 -1.70342,0.45376 -0.97263,0.0668 -1.94859,-0.0568 -2.91279,-0.17986 -1.06105,-0.17726 -2.11867,-0.40315 -3.14384,-0.73161 -0.81227,-0.23933 -1.63988,-0.42928 -2.43142,-0.73622 -0.97072,-0.35659 -1.95124,-0.60141 -2.98482,-0.70155 -1.28717,-0.20711 -2.57325,-0.43122 -3.86582,-0.59721 -0.93021,-0.0503 -1.86437,-0.068 -2.78526,-0.22481 -0.72443,-0.13132 -1.45142,-0.27773 -2.15232,-0.50523 0,0 2.66798,-1.78739 2.66798,-1.78739 z"
       inkscape:connector-curvature="0" />
  </g>
</svg>
